<svg width="16" height="10" viewBox="0 0 16 10" fill="none" xmlns="http://www.w3.org/2000/svg">
<path d="M15.0762 1.84757H0.923788C0.406467 1.84757 0 1.44111 0 0.923787C0 0.406467 0.406467 0 0.923788 0H15.0762C15.5935 0 16 0.406467 16 0.923787C16 1.44111 15.5935 1.84757 15.0762 1.84757Z" fill="white"/>
<path d="M15.0762 5.54289H0.923788C0.406467 5.54289 0 5.13642 0 4.6191C0 4.10178 0.406467 3.69531 0.923788 3.69531H15.0762C15.5935 3.69531 16 4.10178 16 4.6191C16 5.13642 15.5935 5.54289 15.0762 5.54289Z" fill="white"/>
<path d="M15.0762 9.23771H0.923788C0.406467 9.23771 0 8.83125 0 8.31392C0 7.7966 0.406467 7.39014 0.923788 7.39014H15.0762C15.5935 7.39014 16 7.7966 16 8.31392C16 8.83125 15.5935 9.23771 15.0762 9.23771Z" fill="white"/>
</svg>
