<svg width="48" height="48" viewBox="0 0 48 48" fill="none" xmlns="http://www.w3.org/2000/svg">
<path d="M24 2C36.15 2 46 11.85 46 24C46 36.15 36.15 46 24 46C11.85 46 2 36.15 2 24C2 11.85 11.85 2 24 2ZM24 0C10.75 0 0 10.75 0 24C0 37.25 10.75 48 24 48C37.25 48 48 37.25 48 24C48 10.75 37.25 0 24 0Z" fill="white"/>
<path d="M13.3999 28.75C10.7499 28.75 8.6499 26.6 8.6499 24C8.6499 21.35 10.7999 19.25 13.3999 19.25C15.9999 19.25 18.1499 21.4 18.1499 24C18.1999 26.65 16.0499 28.75 13.3999 28.75ZM13.3999 20.75C11.5999 20.75 10.1499 22.2 10.1499 24C10.1499 25.8 11.5999 27.25 13.3999 27.25C15.1999 27.25 16.6499 25.8 16.6499 24C16.6499 22.2 15.1999 20.75 13.3999 20.75Z" fill="white"/>
<path d="M24 28.75C21.35 28.75 19.25 26.6 19.25 24C19.25 21.35 21.4 19.25 24 19.25C26.65 19.25 28.75 21.4 28.75 24C28.75 26.65 26.65 28.75 24 28.75ZM24 20.75C22.2 20.75 20.75 22.2 20.75 24C20.75 25.8 22.2 27.25 24 27.25C25.8 27.25 27.25 25.8 27.25 24C27.25 22.2 25.8 20.75 24 20.75Z" fill="white"/>
<path d="M34.5996 28.75C31.9496 28.75 29.8496 26.6 29.8496 24C29.8496 21.35 31.9996 19.25 34.5996 19.25C37.2496 19.25 39.3496 21.4 39.3496 24C39.3496 26.65 37.1996 28.75 34.5996 28.75ZM34.5996 20.75C32.7996 20.75 31.3496 22.2 31.3496 24C31.3496 25.8 32.7996 27.25 34.5996 27.25C36.3996 27.25 37.8496 25.8 37.8496 24C37.8496 22.2 36.3996 20.75 34.5996 20.75Z" fill="white"/>
</svg>
