<svg id="Laag_1" data-name="Laag 1" xmlns="http://www.w3.org/2000/svg" viewBox="0 0 79.7 100.9"><defs><style>.cls-1{fill:#595959;stroke:#595959;stroke-miterlimit:10;stroke-width:5px;}</style></defs><path class="cls-1" d="M74.6,43.7,14.4,2.9A8.56,8.56,0,0,0,9.8,1.5,8.26,8.26,0,0,0,1.5,9.7V91.2a8.26,8.26,0,0,0,8.3,8.2A8.56,8.56,0,0,0,14.4,98L74.6,57.2a8.09,8.09,0,0,0,3.6-6.8A7.92,7.92,0,0,0,74.6,43.7ZM72,53.4,11.8,94.2a3.61,3.61,0,0,1-2,.6,3.54,3.54,0,0,1-3.5-3.5V9.7A3.47,3.47,0,0,1,9.8,6.2a3.61,3.61,0,0,1,2,.6L72,47.6a3.39,3.39,0,0,1,1.5,2.9A3.5,3.5,0,0,1,72,53.4Z"/></svg>