<svg width="48" height="48" viewBox="0 0 48 48" fill="none" xmlns="http://www.w3.org/2000/svg">
<path d="M19 34.25C18.85 34.25 18.65 34.2 18.55 34.15C18.25 34 18 33.65 18 33.25V14.75C18 14.4 18.2 14.05 18.55 13.85C18.85 13.65 19.25 13.7 19.55 13.9L33.55 23.15C33.85 23.35 34 23.65 34 24C34 24.35 33.85 24.65 33.55 24.85L19.55 34.1C19.4 34.2 19.2 34.25 19 34.25ZM20 16.6V31.35L31.2 24L20 16.6Z" fill="white"/>
<path d="M24 2C36.15 2 46 11.85 46 24C46 36.15 36.15 46 24 46C11.85 46 2 36.15 2 24C2 11.85 11.85 2 24 2ZM24 0C10.75 0 0 10.75 0 24C0 37.25 10.75 48 24 48C37.25 48 48 37.25 48 24C48 10.75 37.25 0 24 0Z" fill="white"/>
</svg>
