<?xml version="1.0" encoding="utf-8"?>
<!-- Generator: Adobe Illustrator 24.2.0, SVG Export Plug-In . SVG Version: 6.00 Build 0)  -->
<svg version="1.1" id="Laag_1" xmlns="http://www.w3.org/2000/svg" xmlns:xlink="http://www.w3.org/1999/xlink" x="0px" y="0px"
	 viewBox="0 0 1027 37.4" style="enable-background:new 0 0 1027 37.4;" xml:space="preserve">
<style type="text/css">
	.st0{clip-path:url(#SVGID_2_);}
	.st1{fill:white;}
</style>
<g>
	<defs>
		<rect id="SVGID_1_" width="1027" height="37.4"/>
	</defs>
	<clipPath id="SVGID_2_">
		<use xlink:href="#SVGID_1_"  style="overflow:visible;"/>
	</clipPath>
	<g class="st0">
		<g>
			<path class="st1" d="M358.4,44.5h-6l0.2-0.2l47.8-47.8h6l-0.2,0.2L358.4,44.5z M353,44.2h5.3l47.5-47.5h-5.3L353,44.2z"/>
		</g>
		<g>
			<path class="st1" d="M318.7,44.5h-6l0.2-0.2l47.8-47.8h6l-0.2,0.2L318.7,44.5z M313.3,44.2h5.3l47.5-47.5h-5.3L313.3,44.2z"/>
		</g>
		<g>
			<path class="st1" d="M324.4,44.5h-6l0.2-0.2l47.8-47.8h6l-0.2,0.2L324.4,44.5z M318.9,44.2h5.3l47.5-47.5h-5.3L318.9,44.2z"/>
		</g>
		<g>
			<path class="st1" d="M301.7,44.5h-6l0.2-0.2l47.8-47.8h6l-0.2,0.2L301.7,44.5z M296.3,44.2h5.3l47.5-47.5h-5.3L296.3,44.2z"/>
		</g>
		<g>
			<path class="st1" d="M307.4,44.5h-6l0.2-0.2l47.8-47.8h6l-0.2,0.2L307.4,44.5z M301.9,44.2h5.3l47.5-47.5h-5.3L301.9,44.2z"/>
		</g>
		<g>
			<path class="st1" d="M335.7,44.5h-6l0.2-0.2l47.8-47.8h6l-0.2,0.2L335.7,44.5z M330.3,44.2h5.3l47.5-47.5h-5.3L330.3,44.2z"/>
		</g>
		<g>
			<path class="st1" d="M494.4,44.5h-6l0.2-0.2l47.8-47.8h6l-0.2,0.2L494.4,44.5z M489,44.2h5.3l47.5-47.5h-5.3L489,44.2z"/>
		</g>
		<g>
			<path class="st1" d="M347,44.5h-6l0.2-0.2L389-3.5h6l-0.2,0.2L347,44.5z M341.6,44.2h5.3l47.5-47.5h-5.3L341.6,44.2z"/>
		</g>
		<g>
			<path class="st1" d="M296,44.5h-6l0.2-0.2L338-3.5h6l-0.2,0.2L296,44.5z M290.6,44.2h5.3l47.5-47.5h-5.3L290.6,44.2z"/>
		</g>
		<g>
			<path class="st1" d="M330,44.5h-6l0.2-0.2L372-3.5h6l-0.2,0.2L330,44.5z M324.6,44.2h5.3l47.5-47.5h-5.3L324.6,44.2z"/>
		</g>
		<g>
			<path class="st1" d="M341.4,44.5h-6l0.2-0.2l47.8-47.8h6l-0.2,0.2L341.4,44.5z M335.9,44.2h5.3l47.5-47.5h-5.3L335.9,44.2z"/>
		</g>
		<g>
			<path class="st1" d="M313,44.5h-6l0.2-0.2L355-3.5h6l-0.2,0.2L313,44.5z M307.6,44.2h5.3l47.5-47.5h-5.3L307.6,44.2z"/>
		</g>
		<g>
			<path class="st1" d="M245,44.5h-6l48-48h6l-0.2,0.2L245,44.5z M239.6,44.2h5.3l47.5-47.5h-5.3L239.6,44.2z"/>
		</g>
		<g>
			<path class="st1" d="M290.3,44.5h-6l48-48h6l-0.2,0.2L290.3,44.5z M284.9,44.2h5.3l47.5-47.5h-5.3L284.9,44.2z"/>
		</g>
		<g>
			<path class="st1" d="M250.7,44.5h-6l48-48h6l-0.2,0.2L250.7,44.5z M245.2,44.2h5.3L298-3.2h-5.3L245.2,44.2z"/>
		</g>
		<g>
			<path class="st1" d="M239.3,44.5h-6l48-48h6L239.3,44.5z M233.9,44.2h5.3l47.5-47.5h-5.3L233.9,44.2z"/>
		</g>
		<g>
			<path class="st1" d="M233.7,44.5h-6l48-48h6L233.7,44.5z M228.2,44.2h5.3L281-3.2h-5.3L228.2,44.2z"/>
		</g>
		<g>
			<path class="st1" d="M256.3,44.5h-6l48-48h6l-0.2,0.2L256.3,44.5z M250.9,44.2h5.3l47.5-47.5h-5.3L250.9,44.2z"/>
		</g>
		<g>
			<path class="st1" d="M262,44.5h-6l48-48h6l-0.2,0.2L262,44.5z M256.6,44.2h5.3l47.5-47.5h-5.3L256.6,44.2z"/>
		</g>
		<g>
			<path class="st1" d="M284.7,44.5h-6l48-48h6l-0.2,0.2L284.7,44.5z M279.3,44.2h5.3l47.5-47.5h-5.3L279.3,44.2z"/>
		</g>
		<g>
			<path class="st1" d="M279,44.5h-6l48-48h6l-0.2,0.2L279,44.5z M273.6,44.2h5.3l47.5-47.5h-5.3L273.6,44.2z"/>
		</g>
		<g>
			<path class="st1" d="M267.7,44.5h-6l48-48h6l-0.2,0.2L267.7,44.5z M262.2,44.2h5.3l47.5-47.5h-5.3L262.2,44.2z"/>
		</g>
		<g>
			<path class="st1" d="M273.3,44.5h-6l48-48h6l-0.2,0.2L273.3,44.5z M267.9,44.2h5.3l47.5-47.5h-5.3L267.9,44.2z"/>
		</g>
		<g>
			<path class="st1" d="M477.4,44.5h-6l0.2-0.2l47.8-47.8h6l-0.2,0.2L477.4,44.5z M472,44.2h5.3l47.5-47.5h-5.3L472,44.2z"/>
		</g>
		<g>
			<path class="st1" d="M432.1,44.5h-6l0.2-0.2L474-3.5h6l-0.2,0.2L432.1,44.5z M426.7,44.2h5.3l47.5-47.5h-5.3L426.7,44.2z"/>
		</g>
		<g>
			<path class="st1" d="M460.4,44.5h-6l0.2-0.2l47.8-47.8h6l-0.2,0.2L460.4,44.5z M455,44.2h5.3l47.5-47.5h-5.3L455,44.2z"/>
		</g>
		<g>
			<path class="st1" d="M449.1,44.5h-6l0.2-0.2l47.8-47.8h6l-0.2,0.2L449.1,44.5z M443.7,44.2h5.3l47.5-47.5h-5.3L443.7,44.2z"/>
		</g>
		<g>
			<path class="st1" d="M443.4,44.5h-6l0.2-0.2l47.8-47.8h6l-0.2,0.2L443.4,44.5z M438,44.2h5.3l47.5-47.5h-5.3L438,44.2z"/>
		</g>
		<g>
			<path class="st1" d="M437.7,44.5h-6l0.2-0.2l47.8-47.8h6l-0.2,0.2L437.7,44.5z M432.3,44.2h5.3l47.5-47.5h-5.3L432.3,44.2z"/>
		</g>
		<g>
			<path class="st1" d="M454.8,44.5h-6l0.2-0.2l47.8-47.8h6l-0.2,0.2L454.8,44.5z M449.3,44.2h5.3l47.5-47.5h-5.3L449.3,44.2z"/>
		</g>
		<g>
			<path class="st1" d="M466.1,44.5h-6l0.2-0.2l47.8-47.8h6l-0.2,0.2L466.1,44.5z M460.7,44.2h5.3l47.5-47.5h-5.3L460.7,44.2z"/>
		</g>
		<g>
			<path class="st1" d="M488.8,44.5h-6l0.2-0.2l47.8-47.8h6l-0.2,0.2L488.8,44.5z M483.3,44.2h5.3l47.5-47.5h-5.3L483.3,44.2z"/>
		</g>
		<g>
			<path class="st1" d="M483.1,44.5h-6l0.2-0.2l47.8-47.8h6l-0.2,0.2L483.1,44.5z M477.7,44.2h5.3l47.5-47.5h-5.3L477.7,44.2z"/>
		</g>
		<g>
			<path class="st1" d="M471.8,44.5h-6l0.2-0.2l47.8-47.8h6l-0.2,0.2L471.8,44.5z M466.3,44.2h5.3l47.5-47.5h-5.3L466.3,44.2z"/>
		</g>
		<g>
			<path class="st1" d="M228,44.5h-6l48-48h6L228,44.5z M222.6,44.2h5.3l47.5-47.5h-5.3L222.6,44.2z"/>
		</g>
		<g>
			<path class="st1" d="M375.4,44.5h-6l0.2-0.2l47.8-47.8h6l-0.2,0.2L375.4,44.5z M370,44.2h5.3l47.5-47.5h-5.3L370,44.2z"/>
		</g>
		<g>
			<path class="st1" d="M386.7,44.5h-6l0.2-0.2l47.8-47.8h6l-0.2,0.2L386.7,44.5z M381.3,44.2h5.3l47.5-47.5h-5.3L381.3,44.2z"/>
		</g>
		<g>
			<path class="st1" d="M381.1,44.5h-6l0.2-0.2L423-3.5h6l-0.2,0.2L381.1,44.5z M375.6,44.2h5.3l47.5-47.5h-5.3L375.6,44.2z"/>
		</g>
		<g>
			<path class="st1" d="M364,44.5h-6l0.2-0.2L406-3.5h6l-0.2,0.2L364,44.5z M358.6,44.2h5.3l47.5-47.5h-5.3L358.6,44.2z"/>
		</g>
		<g>
			<path class="st1" d="M392.4,44.5h-6l0.2-0.2l47.8-47.8h6l-0.2,0.2L392.4,44.5z M387,44.2h5.3l47.5-47.5h-5.3L387,44.2z"/>
		</g>
		<g>
			<path class="st1" d="M369.7,44.5h-6l0.2-0.2l47.8-47.8h6l-0.2,0.2L369.7,44.5z M364.3,44.2h5.3l47.5-47.5h-5.3L364.3,44.2z"/>
		</g>
		<g>
			<path class="st1" d="M420.7,44.5h-6l0.2-0.2l47.8-47.8h6l-0.2,0.2L420.7,44.5z M415.3,44.2h5.3l47.5-47.5h-5.3L415.3,44.2z"/>
		</g>
		<g>
			<path class="st1" d="M415.1,44.5h-6l0.2-0.2L457-3.5h6l-0.2,0.2L415.1,44.5z M409.6,44.2h5.3l47.5-47.5h-5.3L409.6,44.2z"/>
		</g>
		<g>
			<path class="st1" d="M426.4,44.5h-6l0.2-0.2l47.8-47.8h6l-0.2,0.2L426.4,44.5z M421,44.2h5.3l47.5-47.5h-5.3L421,44.2z"/>
		</g>
		<g>
			<path class="st1" d="M403.7,44.5h-6l0.2-0.2l47.8-47.8h6l-0.2,0.2L403.7,44.5z M398.3,44.2h5.3l47.5-47.5h-5.3L398.3,44.2z"/>
		</g>
		<g>
			<path class="st1" d="M409.4,44.5h-6l0.2-0.2l47.8-47.8h6l-0.2,0.2L409.4,44.5z M404,44.2h5.3l47.5-47.5h-5.3L404,44.2z"/>
		</g>
		<g>
			<path class="st1" d="M398.1,44.5h-6l0.2-0.2L440-3.5h6l-0.2,0.2L398.1,44.5z M392.6,44.2h5.3l47.5-47.5h-5.3L392.6,44.2z"/>
		</g>
		<g>
			<path class="st1" d="M352.7,44.5h-6l0.2-0.2l47.8-47.8h6l-0.2,0.2L352.7,44.5z M347.3,44.2h5.3l47.5-47.5h-5.3L347.3,44.2z"/>
		</g>
		<g>
			<path class="st1" d="M46.6,44.5h-6l48-48h6L46.6,44.5z M41.1,44.2h5.3L94-3.2h-5.3L41.1,44.2z"/>
		</g>
		<g>
			<path class="st1" d="M40.9,44.5h-6l48-48h6L40.9,44.5z M35.5,44.2h5.3L88.3-3.2H83L35.5,44.2z"/>
		</g>
		<g>
			<path class="st1" d="M52.2,44.5h-6l48-48h6L52.2,44.5z M46.8,44.2h5.3L99.6-3.2h-5.3L46.8,44.2z"/>
		</g>
		<g>
			<path class="st1" d="M23.9,44.5h-6l48-48h6L23.9,44.5z M18.5,44.2h5.3L71.3-3.2H66L18.5,44.2z"/>
		</g>
		<g>
			<path class="st1" d="M18.2,44.5h-6l48-48h6L18.2,44.5z M12.8,44.2h5.3L65.6-3.2h-5.3L12.8,44.2z"/>
		</g>
		<g>
			<path class="st1" d="M29.6,44.5h-6l48-48h6L29.6,44.5z M24.1,44.2h5.3L76.9-3.2h-5.3L24.1,44.2z"/>
		</g>
		<g>
			<path class="st1" d="M80.6,44.5h-6l48-48h6L80.6,44.5z M75.2,44.2h5.3L128-3.2h-5.3L75.2,44.2z"/>
		</g>
		<g>
			<path class="st1" d="M57.9,44.5h-6l48-48h6L57.9,44.5z M52.5,44.2h5.3l47.5-47.5H100L52.5,44.2z"/>
		</g>
		<g>
			<path class="st1" d="M86.2,44.5h-6l48-48h6L86.2,44.5z M80.8,44.2h5.3l47.5-47.5h-5.3L80.8,44.2z"/>
		</g>
		<g>
			<path class="st1" d="M63.6,44.5h-6l48-48h6L63.6,44.5z M58.2,44.2h5.3L111-3.2h-5.3L58.2,44.2z"/>
		</g>
		<g>
			<path class="st1" d="M69.2,44.5h-6l48-48h6L69.2,44.5z M63.8,44.2h5.3l47.5-47.5h-5.3L63.8,44.2z"/>
		</g>
		<g>
			<path class="st1" d="M74.9,44.5h-6l48-48h6L74.9,44.5z M69.5,44.2h5.3l47.5-47.5H117L69.5,44.2z"/>
		</g>
		<g>
			<path class="st1" d="M-2.2,13.9v-6L9.2-3.5h6L-2.2,13.9z M-2,8v5.3L14.6-3.2H9.3L-2,8z"/>
		</g>
		<g>
			<path class="st1" d="M-2.2,19.6v-6L14.8-3.5h6L-2.2,19.6z M-2,13.7V19L20.3-3.2h-5.3L-2,13.7z"/>
		</g>
		<g>
			<path class="st1" d="M-2.2,25.3v-6L20.5-3.5h6L-2.2,25.3z M-2,19.4v5.3L25.9-3.2h-5.3L-2,19.4z"/>
		</g>
		<g>
			<path class="st1" d="M-2.2,8.3v-6l5.7-5.7h6L-2.2,8.3z M-2,2.4v5.3L8.9-3.2H3.6L-2,2.4z"/>
		</g>
		<g>
			<path class="st1" d="M-2.2,2.6v-6.1h6.1L-2.2,2.6z M-2-3.2V2l5.2-5.2H-2z"/>
		</g>
		<g>
			<path class="st1" d="M-2.2,31v-6L26.2-3.5h6L-2.2,31z M-2,25v5.3L31.6-3.2h-5.3L-2,25z"/>
		</g>
		<g>
			<path class="st1" d="M1.2,44.5h-3.5v-2.6L43.2-3.5h6L1.2,44.5z M-2,44.2h3.1L48.6-3.2h-5.3L-2,42V44.2z"/>
		</g>
		<g>
			<path class="st1" d="M6.9,44.5h-6l48-48h6L6.9,44.5z M1.5,44.2h5.3L54.3-3.2H49L1.5,44.2z"/>
		</g>
		<g>
			<path class="st1" d="M-2.2,36.6v-6L31.8-3.5h6L-2.2,36.6z M-2,30.7V36L37.3-3.2h-5.3L-2,30.7z"/>
		</g>
		<g>
			<path class="st1" d="M-2.2,42.3v-6L37.5-3.5h6L-2.2,42.3z M-2,36.4v5.3L42.9-3.2h-5.3L-2,36.4z"/>
		</g>
		<g>
			<path class="st1" d="M12.5,44.5h-6l48-48h6L12.5,44.5z M7.1,44.2h5.3L59.9-3.2h-5.3L7.1,44.2z"/>
		</g>
		<g>
			<path class="st1" d="M142.9,44.5h-6l48-48h6L142.9,44.5z M137.5,44.2h5.3l47.5-47.5H185L137.5,44.2z"/>
		</g>
		<g>
			<path class="st1" d="M160,44.5h-6l48-48h6L160,44.5z M154.5,44.2h5.3l47.5-47.5H202L154.5,44.2z"/>
		</g>
		<g>
			<path class="st1" d="M188.3,44.5h-6l48-48h6L188.3,44.5z M182.9,44.2h5.3l47.5-47.5h-5.3L182.9,44.2z"/>
		</g>
		<g>
			<path class="st1" d="M182.6,44.5h-6l48-48h6L182.6,44.5z M177.2,44.2h5.3L230-3.2h-5.3L177.2,44.2z"/>
		</g>
		<g>
			<path class="st1" d="M165.6,44.5h-6l48-48h6L165.6,44.5z M160.2,44.2h5.3L213-3.2h-5.3L160.2,44.2z"/>
		</g>
		<g>
			<path class="st1" d="M171.3,44.5h-6l48-48h6L171.3,44.5z M165.9,44.2h5.3l47.5-47.5h-5.3L165.9,44.2z"/>
		</g>
		<g>
			<path class="st1" d="M177,44.5h-6l48-48h6L177,44.5z M171.5,44.2h5.3l47.5-47.5H219L171.5,44.2z"/>
		</g>
		<g>
			<path class="st1" d="M216.6,44.5h-6l48-48h6L216.6,44.5z M211.2,44.2h5.3L264-3.2h-5.3L211.2,44.2z"/>
		</g>
		<g>
			<path class="st1" d="M211,44.5h-6l48-48h6L211,44.5z M205.6,44.2h5.3l47.5-47.5H253L205.6,44.2z"/>
		</g>
		<g>
			<path class="st1" d="M194,44.5h-6l48-48h6L194,44.5z M188.5,44.2h5.3l47.5-47.5H236L188.5,44.2z"/>
		</g>
		<g>
			<path class="st1" d="M199.6,44.5h-6l48-48h6L199.6,44.5z M194.2,44.2h5.3L247-3.2h-5.3L194.2,44.2z"/>
		</g>
		<g>
			<path class="st1" d="M205.3,44.5h-6l48-48h6L205.3,44.5z M199.9,44.2h5.3l47.5-47.5h-5.3L199.9,44.2z"/>
		</g>
		<g>
			<path class="st1" d="M222.3,44.5h-6l48-48h6L222.3,44.5z M216.9,44.2h5.3l47.5-47.5h-5.3L216.9,44.2z"/>
		</g>
		<g>
			<path class="st1" d="M114.6,44.5h-6l48-48h6L114.6,44.5z M109.2,44.2h5.3L162-3.2h-5.3L109.2,44.2z"/>
		</g>
		<g>
			<path class="st1" d="M108.9,44.5h-6l48-48h6L108.9,44.5z M103.5,44.2h5.3l47.5-47.5H151L103.5,44.2z"/>
		</g>
		<g>
			<path class="st1" d="M97.6,44.5h-6l48-48h6L97.6,44.5z M92.2,44.2h5.3L145-3.2h-5.3L92.2,44.2z"/>
		</g>
		<g>
			<path class="st1" d="M103.3,44.5h-6l48-48h6L103.3,44.5z M97.8,44.2h5.3l47.5-47.5h-5.3L97.8,44.2z"/>
		</g>
		<g>
			<path class="st1" d="M120.3,44.5h-6l48-48h6L120.3,44.5z M114.8,44.2h5.3l47.5-47.5h-5.3L114.8,44.2z"/>
		</g>
		<g>
			<path class="st1" d="M148.6,44.5h-6l48-48h6L148.6,44.5z M143.2,44.2h5.3L196-3.2h-5.3L143.2,44.2z"/>
		</g>
		<g>
			<path class="st1" d="M154.3,44.5h-6l48-48h6L154.3,44.5z M148.9,44.2h5.3l47.5-47.5h-5.3L148.9,44.2z"/>
		</g>
		<g>
			<path class="st1" d="M91.9,44.5h-6l48-48h6L91.9,44.5z M86.5,44.2h5.3l47.5-47.5H134L86.5,44.2z"/>
		</g>
		<g>
			<path class="st1" d="M125.9,44.5h-6l48-48h6L125.9,44.5z M120.5,44.2h5.3l47.5-47.5H168L120.5,44.2z"/>
		</g>
		<g>
			<path class="st1" d="M137.3,44.5h-6l48-48h6L137.3,44.5z M131.9,44.2h5.3l47.5-47.5h-5.3L131.9,44.2z"/>
		</g>
		<g>
			<path class="st1" d="M131.6,44.5h-6l48-48h6L131.6,44.5z M126.2,44.2h5.3L179-3.2h-5.3L126.2,44.2z"/>
		</g>
		<g>
			<path class="st1" d="M35.2,44.5h-6l48-48h6L35.2,44.5z M29.8,44.2h5.3L82.6-3.2h-5.3L29.8,44.2z"/>
		</g>
		<g>
			<path class="st1" d="M857.3,44.5h-6l0.2-0.2l47.8-47.8h6l-0.2,0.2L857.3,44.5z M851.9,44.2h5.3l47.5-47.5h-5.3L851.9,44.2z"/>
		</g>
		<g>
			<path class="st1" d="M908.3,44.5h-6l0.2-0.2l47.8-47.8h6l-0.2,0.2L908.3,44.5z M902.9,44.2h5.3l47.5-47.5h-5.3L902.9,44.2z"/>
		</g>
		<g>
			<path class="st1" d="M868.6,44.5h-6l0.2-0.2l47.8-47.8h6l-0.2,0.2L868.6,44.5z M863.2,44.2h5.3L916-3.2h-5.3L863.2,44.2z"/>
		</g>
		<g>
			<path class="st1" d="M851.6,44.5h-6l0.2-0.2l47.8-47.8h6l-0.2,0.2L851.6,44.5z M846.2,44.2h5.3L899-3.2h-5.3L846.2,44.2z"/>
		</g>
		<g>
			<path class="st1" d="M845.9,44.5h-6l0.2-0.2l47.8-47.8h6l-0.2,0.2L845.9,44.5z M840.5,44.2h5.3l47.5-47.5H888L840.5,44.2z"/>
		</g>
		<g>
			<path class="st1" d="M874.3,44.5h-6l0.2-0.2l47.8-47.8h6l-0.2,0.2L874.3,44.5z M868.9,44.2h5.3l47.5-47.5h-5.3L868.9,44.2z"/>
		</g>
		<g>
			<path class="st1" d="M880,44.5h-6l0.2-0.2l47.8-47.8h6l-0.2,0.2L880,44.5z M874.5,44.2h5.3l47.5-47.5H922L874.5,44.2z"/>
		</g>
		<g>
			<path class="st1" d="M897,44.5h-6l0.2-0.2l47.8-47.8h6l-0.2,0.2L897,44.5z M891.5,44.2h5.3l47.5-47.5H939L891.5,44.2z"/>
		</g>
		<g>
			<path class="st1" d="M902.6,44.5h-6l0.2-0.2l47.8-47.8h6l-0.2,0.2L902.6,44.5z M897.2,44.2h5.3L950-3.2h-5.3L897.2,44.2z"/>
		</g>
		<g>
			<path class="st1" d="M891.3,44.5h-6l0.2-0.2l47.8-47.8h6l-0.2,0.2L891.3,44.5z M885.9,44.2h5.3l47.5-47.5h-5.3L885.9,44.2z"/>
		</g>
		<g>
			<path class="st1" d="M885.6,44.5h-6l0.2-0.2l47.8-47.8h6l-0.2,0.2L885.6,44.5z M880.2,44.2h5.3L933-3.2h-5.3L880.2,44.2z"/>
		</g>
		<g>
			<path class="st1" d="M840.3,44.5h-6l0.2-0.2l47.8-47.8h6L888-3.3L840.3,44.5z M834.8,44.2h5.3l47.5-47.5h-5.3L834.8,44.2z"/>
		</g>
		<g>
			<path class="st1" d="M862.9,44.5h-6l0.2-0.2l47.8-47.8h6l-0.2,0.2L862.9,44.5z M857.5,44.2h5.3l47.5-47.5H905L857.5,44.2z"/>
		</g>
		<g>
			<path class="st1" d="M794.9,44.5h-6l0.2-0.2l47.8-47.8h6l-0.2,0.2L794.9,44.5z M789.5,44.2h5.3l47.5-47.5H837L789.5,44.2z"/>
		</g>
		<g>
			<path class="st1" d="M772.2,44.5h-6l0.2-0.2l47.8-47.8h6L820-3.3L772.2,44.5z M766.8,44.2h5.3l47.5-47.5h-5.3L766.8,44.2z"/>
		</g>
		<g>
			<path class="st1" d="M777.9,44.5h-6l0.2-0.2l47.8-47.8h6l-0.2,0.2L777.9,44.5z M772.5,44.2h5.3l47.5-47.5H820L772.5,44.2z"/>
		</g>
		<g>
			<path class="st1" d="M800.6,44.5h-6l0.2-0.2l47.8-47.8h6l-0.2,0.2L800.6,44.5z M795.2,44.2h5.3L848-3.2h-5.3L795.2,44.2z"/>
		</g>
		<g>
			<path class="st1" d="M783.6,44.5h-6l0.2-0.2l47.8-47.8h6l-0.2,0.2L783.6,44.5z M778.2,44.2h5.3L831-3.2h-5.3L778.2,44.2z"/>
		</g>
		<g>
			<path class="st1" d="M789.2,44.5h-6l0.2-0.2l47.8-47.8h6L837-3.3L789.2,44.5z M783.8,44.2h5.3l47.5-47.5h-5.3L783.8,44.2z"/>
		</g>
		<g>
			<path class="st1" d="M823.3,44.5h-6l0.2-0.2l47.8-47.8h6L871-3.3L823.3,44.5z M817.8,44.2h5.3l47.5-47.5h-5.3L817.8,44.2z"/>
		</g>
		<g>
			<path class="st1" d="M828.9,44.5h-6l0.2-0.2l47.8-47.8h6l-0.2,0.2L828.9,44.5z M823.5,44.2h5.3l47.5-47.5H871L823.5,44.2z"/>
		</g>
		<g>
			<path class="st1" d="M806.2,44.5h-6l0.2-0.2l47.8-47.8h6L854-3.3L806.2,44.5z M800.8,44.2h5.3l47.5-47.5h-5.3L800.8,44.2z"/>
		</g>
		<g>
			<path class="st1" d="M817.6,44.5h-6l0.2-0.2l47.8-47.8h6l-0.2,0.2L817.6,44.5z M812.2,44.2h5.3L865-3.2h-5.3L812.2,44.2z"/>
		</g>
		<g>
			<path class="st1" d="M811.9,44.5h-6l0.2-0.2l47.8-47.8h6l-0.2,0.2L811.9,44.5z M806.5,44.2h5.3l47.5-47.5H854L806.5,44.2z"/>
		</g>
		<g>
			<path class="st1" d="M834.6,44.5h-6l0.2-0.2l47.8-47.8h6l-0.2,0.2L834.6,44.5z M829.2,44.2h5.3L882-3.2h-5.3L829.2,44.2z"/>
		</g>
		<g>
			<path class="st1" d="M1010.3,44.5h-6l0.2-0.2l29.5-29.5v6l0,0L1010.3,44.5z M1004.9,44.2h5.3l23.6-23.6v-5.3L1004.9,44.2z"/>
		</g>
		<g>
			<path class="st1" d="M999,44.5h-6l0.2-0.2l40.9-40.9v6l0,0L999,44.5z M993.6,44.2h5.3l34.9-34.9V4L993.6,44.2z"/>
		</g>
		<g>
			<path class="st1" d="M1004.7,44.5h-6l0.2-0.2l35.2-35.2v6l0,0L1004.7,44.5z M999.3,44.2h5.3l29.2-29.2V9.7L999.3,44.2z"/>
		</g>
		<g>
			<path class="st1" d="M987.7,44.5h-6l0.2-0.2l47.8-47.8h4.4v1.6l0,0L987.7,44.5z M982.2,44.2h5.3L1033.8-2v-1.2h-4.1L982.2,44.2z"
				/>
		</g>
		<g>
			<path class="st1" d="M993.3,44.5h-6l0.2-0.2l46.5-46.5v6l0,0L993.3,44.5z M987.9,44.2h5.3l40.6-40.6v-5.3L987.9,44.2z"/>
		</g>
		<g>
			<path class="st1" d="M1034.1,44.5h-1.4l1.4-1.4V44.5z M1033.3,44.2h0.5v-0.5L1033.3,44.2z"/>
		</g>
		<g>
			<path class="st1" d="M1033,44.5h-6l7.1-7.1v6L1033,44.5z M1027.6,44.2h5.3l0.9-0.9V38L1027.6,44.2z"/>
		</g>
		<g>
			<path class="st1" d="M982,44.5h-6l0.2-0.2L1024-3.5h6l-0.2,0.2L982,44.5z M976.6,44.2h5.3l47.5-47.5h-5.3L976.6,44.2z"/>
		</g>
		<g>
			<path class="st1" d="M1027.4,44.5h-6l0.2-0.2l12.5-12.5v6l0,0L1027.4,44.5z M1021.9,44.2h5.3l6.6-6.6v-5.3L1021.9,44.2z"/>
		</g>
		<g>
			<path class="st1" d="M1021.7,44.5h-6l0.2-0.2l18.2-18.2v6l0,0L1021.7,44.5z M1016.3,44.2h5.3l12.2-12.2v-5.3L1016.3,44.2z"/>
		</g>
		<g>
			<path class="st1" d="M1016,44.5h-6l0.2-0.2l23.9-23.9v6l0,0L1016,44.5z M1010.6,44.2h5.3l17.9-17.9V21L1010.6,44.2z"/>
		</g>
		<g>
			<path class="st1" d="M936.6,44.5h-6l0.2-0.2l47.8-47.8h6l-0.2,0.2L936.6,44.5z M931.2,44.2h5.3L984-3.2h-5.3L931.2,44.2z"/>
		</g>
		<g>
			<path class="st1" d="M914,44.5h-6l0.2-0.2l47.8-47.8h6l-0.2,0.2L914,44.5z M908.5,44.2h5.3l47.5-47.5H956L908.5,44.2z"/>
		</g>
		<g>
			<path class="st1" d="M931,44.5h-6l0.2-0.2l47.8-47.8h6l-0.2,0.2L931,44.5z M925.6,44.2h5.3l47.5-47.5H973L925.6,44.2z"/>
		</g>
		<g>
			<path class="st1" d="M942.3,44.5h-6l0.2-0.2l47.8-47.8h6l-0.2,0.2L942.3,44.5z M936.9,44.2h5.3l47.5-47.5h-5.3L936.9,44.2z"/>
		</g>
		<g>
			<path class="st1" d="M919.6,44.5h-6l0.2-0.2l47.8-47.8h6l-0.2,0.2L919.6,44.5z M914.2,44.2h5.3L967-3.2h-5.3L914.2,44.2z"/>
		</g>
		<g>
			<path class="st1" d="M976.3,44.5h-6l0.2-0.2l47.8-47.8h6l-0.2,0.2L976.3,44.5z M970.9,44.2h5.3l47.5-47.5h-5.3L970.9,44.2z"/>
		</g>
		<g>
			<path class="st1" d="M925.3,44.5h-6l0.2-0.2l47.8-47.8h6l-0.2,0.2L925.3,44.5z M919.9,44.2h5.3l47.5-47.5h-5.3L919.9,44.2z"/>
		</g>
		<g>
			<path class="st1" d="M948,44.5h-6l0.2-0.2l47.8-47.8h6l-0.2,0.2L948,44.5z M942.6,44.2h5.3l47.5-47.5h-5.3L942.6,44.2z"/>
		</g>
		<g>
			<path class="st1" d="M970.7,44.5h-6l0.2-0.2l47.8-47.8h6l-0.2,0.2L970.7,44.5z M965.2,44.2h5.3L1018-3.2h-5.3L965.2,44.2z"/>
		</g>
		<g>
			<path class="st1" d="M965,44.5h-6l0.2-0.2L1007-3.5h6l-0.2,0.2L965,44.5z M959.6,44.2h5.3l47.5-47.5h-5.3L959.6,44.2z"/>
		</g>
		<g>
			<path class="st1" d="M959.3,44.5h-6l0.2-0.2l47.8-47.8h6l-0.2,0.2L959.3,44.5z M953.9,44.2h5.3l47.5-47.5h-5.3L953.9,44.2z"/>
		</g>
		<g>
			<path class="st1" d="M953.7,44.5h-6l0.2-0.2l47.8-47.8h6l-0.2,0.2L953.7,44.5z M948.2,44.2h5.3L1001-3.2h-5.3L948.2,44.2z"/>
		</g>
		<g>
			<path class="st1" d="M692.9,44.5h-6l0.2-0.2l47.8-47.8h6l-0.2,0.2L692.9,44.5z M687.4,44.2h5.3l47.5-47.5h-5.3L687.4,44.2z"/>
		</g>
		<g>
			<path class="st1" d="M585.1,44.5h-6l0.2-0.2l47.8-47.8h6l-0.2,0.2L585.1,44.5z M579.7,44.2h5.3l47.5-47.5h-5.3L579.7,44.2z"/>
		</g>
		<g>
			<path class="st1" d="M590.8,44.5h-6l0.2-0.2l47.8-47.8h6l-0.2,0.2L590.8,44.5z M585.4,44.2h5.3l47.5-47.5h-5.3L585.4,44.2z"/>
		</g>
		<g>
			<path class="st1" d="M579.5,44.5h-6l0.2-0.2l47.8-47.8h6l-0.2,0.2L579.5,44.5z M574.1,44.2h5.3l47.5-47.5h-5.3L574.1,44.2z"/>
		</g>
		<g>
			<path class="st1" d="M568.1,44.5h-6l0.2-0.2l47.8-47.8h6l-0.2,0.2L568.1,44.5z M562.7,44.2h5.3l47.5-47.5h-5.3L562.7,44.2z"/>
		</g>
		<g>
			<path class="st1" d="M596.5,44.5h-6l0.2-0.2l47.8-47.8h6l-0.2,0.2L596.5,44.5z M591.1,44.2h5.3l47.5-47.5h-5.3L591.1,44.2z"/>
		</g>
		<g>
			<path class="st1" d="M573.8,44.5h-6l0.2-0.2l47.8-47.8h6l-0.2,0.2L573.8,44.5z M568.4,44.2h5.3l47.5-47.5h-5.3L568.4,44.2z"/>
		</g>
		<g>
			<path class="st1" d="M624.8,44.5h-6l0.2-0.2l47.8-47.8h6l-0.2,0.2L624.8,44.5z M619.4,44.2h5.3l47.5-47.5h-5.3L619.4,44.2z"/>
		</g>
		<g>
			<path class="st1" d="M619.2,44.5h-6l0.2-0.2l47.8-47.8h6l-0.2,0.2L619.2,44.5z M613.7,44.2h5.3l47.5-47.5h-5.3L613.7,44.2z"/>
		</g>
		<g>
			<path class="st1" d="M613.5,44.5h-6l0.2-0.2l47.8-47.8h6l-0.2,0.2L613.5,44.5z M608.1,44.2h5.3l47.5-47.5h-5.3L608.1,44.2z"/>
		</g>
		<g>
			<path class="st1" d="M607.8,44.5h-6l0.2-0.2l47.8-47.8h6l-0.2,0.2L607.8,44.5z M602.4,44.2h5.3l47.5-47.5h-5.3L602.4,44.2z"/>
		</g>
		<g>
			<path class="st1" d="M602.2,44.5h-6l0.2-0.2l47.8-47.8h6l-0.2,0.2L602.2,44.5z M596.7,44.2h5.3l47.5-47.5h-5.3L596.7,44.2z"/>
		</g>
		<g>
			<path class="st1" d="M528.5,44.5h-6l0.2-0.2l47.8-47.8h6l-0.2,0.2L528.5,44.5z M523,44.2h5.3l47.5-47.5h-5.3L523,44.2z"/>
		</g>
		<g>
			<path class="st1" d="M517.1,44.5h-6l0.2-0.2l47.8-47.8h6l-0.2,0.2L517.1,44.5z M511.7,44.2h5.3l47.5-47.5h-5.3L511.7,44.2z"/>
		</g>
		<g>
			<path class="st1" d="M522.8,44.5h-6l0.2-0.2l47.8-47.8h6l-0.2,0.2L522.8,44.5z M517.4,44.2h5.3l47.5-47.5h-5.3L517.4,44.2z"/>
		</g>
		<g>
			<path class="st1" d="M505.8,44.5h-6l0.2-0.2l47.8-47.8h6l-0.2,0.2L505.8,44.5z M500.4,44.2h5.3l47.5-47.5h-5.3L500.4,44.2z"/>
		</g>
		<g>
			<path class="st1" d="M562.5,44.5h-6l0.2-0.2l47.8-47.8h6l-0.2,0.2L562.5,44.5z M557.1,44.2h5.3l47.5-47.5h-5.3L557.1,44.2z"/>
		</g>
		<g>
			<path class="st1" d="M511.4,44.5h-6l0.2-0.2l47.8-47.8h6l-0.2,0.2L511.4,44.5z M506,44.2h5.3l47.5-47.5h-5.3L506,44.2z"/>
		</g>
		<g>
			<path class="st1" d="M630.5,44.5h-6l0.2-0.2l47.8-47.8h6l-0.2,0.2L630.5,44.5z M625.1,44.2h5.3l47.5-47.5h-5.3L625.1,44.2z"/>
		</g>
		<g>
			<path class="st1" d="M556.8,44.5h-6l0.2-0.2l47.8-47.8h6l-0.2,0.2L556.8,44.5z M551.4,44.2h5.3l47.5-47.5h-5.3L551.4,44.2z"/>
		</g>
		<g>
			<path class="st1" d="M534.1,44.5h-6l0.2-0.2l47.8-47.8h6l-0.2,0.2L534.1,44.5z M528.7,44.2h5.3l47.5-47.5h-5.3L528.7,44.2z"/>
		</g>
		<g>
			<path class="st1" d="M551.1,44.5h-6l0.2-0.2l47.8-47.8h6l-0.2,0.2L551.1,44.5z M545.7,44.2h5.3l47.5-47.5h-5.3L545.7,44.2z"/>
		</g>
		<g>
			<path class="st1" d="M545.5,44.5h-6l0.2-0.2l47.8-47.8h6l-0.2,0.2L545.5,44.5z M540,44.2h5.3l47.5-47.5h-5.3L540,44.2z"/>
		</g>
		<g>
			<path class="st1" d="M539.8,44.5h-6l0.2-0.2l47.8-47.8h6l-0.2,0.2L539.8,44.5z M534.4,44.2h5.3l47.5-47.5h-5.3L534.4,44.2z"/>
		</g>
		<g>
			<path class="st1" d="M658.8,44.5h-6l0.2-0.2l47.8-47.8h6l-0.2,0.2L658.8,44.5z M653.4,44.2h5.3l47.5-47.5h-5.3L653.4,44.2z"/>
		</g>
		<g>
			<path class="st1" d="M726.9,44.5h-6l0.2-0.2l47.8-47.8h6l-0.2,0.2L726.9,44.5z M721.5,44.2h5.3l47.5-47.5H769L721.5,44.2z"/>
		</g>
		<g>
			<path class="st1" d="M732.5,44.5h-6l0.2-0.2l47.8-47.8h6l-0.2,0.2L732.5,44.5z M727.1,44.2h5.3l47.5-47.5h-5.3L727.1,44.2z"/>
		</g>
		<g>
			<path class="st1" d="M721.2,44.5h-6l0.2-0.2l47.8-47.8h6L769-3.3L721.2,44.5z M715.8,44.2h5.3l47.5-47.5h-5.3L715.8,44.2z"/>
		</g>
		<g>
			<path class="st1" d="M709.9,44.5h-6l0.2-0.2l47.8-47.8h6l-0.2,0.2L709.9,44.5z M704.5,44.2h5.3l47.5-47.5h-5.3L704.5,44.2z"/>
		</g>
		<g>
			<path class="st1" d="M715.5,44.5h-6l0.2-0.2l47.8-47.8h6l-0.2,0.2L715.5,44.5z M710.1,44.2h5.3l47.5-47.5h-5.3L710.1,44.2z"/>
		</g>
		<g>
			<path class="st1" d="M755.2,44.5h-6l0.2-0.2l47.8-47.8h6L803-3.3L755.2,44.5z M749.8,44.2h5.3l47.5-47.5h-5.3L749.8,44.2z"/>
		</g>
		<g>
			<path class="st1" d="M704.2,44.5h-6l0.2-0.2l47.8-47.8h6L752-3.3L704.2,44.5z M698.8,44.2h5.3l47.5-47.5h-5.3L698.8,44.2z"/>
		</g>
		<g>
			<path class="st1" d="M760.9,44.5h-6l0.2-0.2l47.8-47.8h6l-0.2,0.2L760.9,44.5z M755.5,44.2h5.3l47.5-47.5H803L755.5,44.2z"/>
		</g>
		<g>
			<path class="st1" d="M749.6,44.5h-6l0.2-0.2l47.8-47.8h6l-0.2,0.2L749.6,44.5z M744.1,44.2h5.3l47.5-47.5h-5.3L744.1,44.2z"/>
		</g>
		<g>
			<path class="st1" d="M636.2,44.5h-6l0.2-0.2l47.8-47.8h6l-0.2,0.2L636.2,44.5z M630.8,44.2h5.3l47.5-47.5h-5.3L630.8,44.2z"/>
		</g>
		<g>
			<path class="st1" d="M743.9,44.5h-6l0.2-0.2l47.8-47.8h6l-0.2,0.2L743.9,44.5z M738.5,44.2h5.3l47.5-47.5H786L738.5,44.2z"/>
		</g>
		<g>
			<path class="st1" d="M738.2,44.5h-6l0.2-0.2l47.8-47.8h6L786-3.3L738.2,44.5z M732.8,44.2h5.3l47.5-47.5h-5.3L732.8,44.2z"/>
		</g>
		<g>
			<path class="st1" d="M653.2,44.5h-6l0.2-0.2l47.8-47.8h6L701-3.3L653.2,44.5z M647.8,44.2h5.3l47.5-47.5h-5.3L647.8,44.2z"/>
		</g>
		<g>
			<path class="st1" d="M766.6,44.5h-6l0.2-0.2l47.8-47.8h6l-0.2,0.2L766.6,44.5z M761.1,44.2h5.3L814-3.2h-5.3L761.1,44.2z"/>
		</g>
		<g>
			<path class="st1" d="M664.5,44.5h-6l0.2-0.2l47.8-47.8h6l-0.2,0.2L664.5,44.5z M659.1,44.2h5.3l47.5-47.5h-5.3L659.1,44.2z"/>
		</g>
		<g>
			<path class="st1" d="M698.5,44.5h-6l0.2-0.2l47.8-47.8h6l-0.2,0.2L698.5,44.5z M693.1,44.2h5.3l47.5-47.5h-5.3L693.1,44.2z"/>
		</g>
		<g>
			<path class="st1" d="M647.5,44.5h-6l0.2-0.2l47.8-47.8h6l-0.2,0.2L647.5,44.5z M642.1,44.2h5.3l47.5-47.5h-5.3L642.1,44.2z"/>
		</g>
		<g>
			<path class="st1" d="M641.8,44.5h-6l0.2-0.2l47.8-47.8h6l-0.2,0.2L641.8,44.5z M636.4,44.2h5.3l47.5-47.5h-5.3L636.4,44.2z"/>
		</g>
		<g>
			<path class="st1" d="M500.1,44.5h-6l0.2-0.2l47.8-47.8h6l-0.2,0.2L500.1,44.5z M494.7,44.2h5.3l47.5-47.5h-5.3L494.7,44.2z"/>
		</g>
		<g>
			<path class="st1" d="M670.2,44.5h-6l0.2-0.2l47.8-47.8h6L718-3.3L670.2,44.5z M664.8,44.2h5.3l47.5-47.5h-5.3L664.8,44.2z"/>
		</g>
		<g>
			<path class="st1" d="M687.2,44.5h-6l0.2-0.2l47.8-47.8h6L735-3.3L687.2,44.5z M681.8,44.2h5.3l47.5-47.5h-5.3L681.8,44.2z"/>
		</g>
		<g>
			<path class="st1" d="M681.5,44.5h-6l0.2-0.2l47.8-47.8h6l-0.2,0.2L681.5,44.5z M676.1,44.2h5.3l47.5-47.5h-5.3L676.1,44.2z"/>
		</g>
		<g>
			<path class="st1" d="M675.9,44.5h-6l0.2-0.2l47.8-47.8h6l-0.2,0.2L675.9,44.5z M670.4,44.2h5.3l47.5-47.5h-5.3L670.4,44.2z"/>
		</g>
	</g>
</g>
</svg>
